<?xml version="1.0" encoding="utf-8"?>
<!-- Generator: Adobe Illustrator 23.1.0, SVG Export Plug-In . SVG Version: 6.00 Build 0)  -->
<svg version="1.1" id="Layer_1" xmlns="http://www.w3.org/2000/svg" xmlns:xlink="http://www.w3.org/1999/xlink" x="0px" y="0px"
	 viewBox="0 0 149.15 126.7" style="enable-background:new 0 0 149.15 126.7;" xml:space="preserve">
<style type="text/css">
	.st0{fill:#A6A39E;}
	.st1{fill:#D8D5CF;}
	.st2{fill:#C43F38;}
	.st3{fill:#F3F2F2;}
	.st4{fill:#DDDAD4;}
	.st5{fill:#474747;}
	.st6{fill:#8B8984;}
</style>
<g>
	<path class="st0" d="M37.11,95.29c-3.46,0.01-6.28-2.8-6.28-6.26l-0.08-46.81c-0.01-3.46,2.8-6.28,6.26-6.28l75.02-0.13
		c3.46,0,6.27,2.8,6.28,6.26l0.08,46.81c0.01,3.46-2.8,6.28-6.26,6.28L37.11,95.29z"/>
	<path class="st1" d="M112.13,93.37L37.11,93.5c-2.47,0-4.48-2-4.49-4.47l-0.08-46.81c-0.01-2.47,2-4.48,4.47-4.49l75.02-0.13
		c2.48,0,4.49,2,4.49,4.47l0.08,46.81C116.61,91.36,114.61,93.36,112.13,93.37z"/>
	<g>
		<path class="st2" d="M66.13,52.87c-2.35,0-4.27,1.92-4.27,4.28l0.03,16.84c0,2.36,1.92,4.27,4.28,4.27l16.84-0.03
			c2.36,0,4.27-1.92,4.27-4.28l-0.03-16.84c0-2.36-1.92-4.27-4.28-4.27L66.13,52.87z"/>
		<g>
			<path class="st3" d="M83.02,79.65l-16.84,0.03c-3.14,0.01-5.7-2.55-5.71-5.69l-0.03-16.84c0-3.14,2.55-5.7,5.69-5.71l16.83-0.03
				c3.14-0.01,5.71,2.55,5.71,5.69l0.03,16.84C88.71,77.09,86.16,79.65,83.02,79.65z M66.13,52.87c-2.35,0-4.27,1.92-4.27,4.28
				l0.03,16.84c0,2.36,1.92,4.27,4.28,4.27l16.84-0.03c2.36,0,4.27-1.92,4.27-4.28l-0.03-16.84c0-2.36-1.92-4.27-4.28-4.27
				L66.13,52.87z"/>
		</g>
		<polygon class="st3" points="84.31,62.47 77.63,62.48 77.62,55.81 71.49,55.82 71.51,62.49 64.83,62.5 64.84,68.63 71.52,68.62 
			71.53,75.29 77.65,75.28 77.64,68.61 84.32,68.6 		"/>
		<g>
			
				<rect x="71.49" y="55.81" transform="matrix(1 -2.021690e-03 2.021690e-03 1 -0.1136 0.1508)" class="st4" width="6.13" height="0.87"/>
			
				<rect x="77.63" y="62.48" transform="matrix(1 -1.946942e-03 1.946942e-03 1 -0.1223 0.1578)" class="st4" width="6.67" height="0.87"/>
			
				<rect x="64.83" y="62.5" transform="matrix(1 -1.700044e-03 1.700044e-03 1 -0.1069 0.116)" class="st4" width="6.67" height="0.88"/>
		</g>
	</g>
	<path class="st5" d="M112.04,37.6l-75.02,0.13c-2.47,0-4.48,2.01-4.47,4.49l0,2.69l83.98-0.14l0-2.69
		C116.52,39.6,114.51,37.6,112.04,37.6z"/>
	<path class="st4" d="M112.13,93.37L37.11,93.5c-2.47,0-4.48-2-4.49-4.47l-0.01-2.69l83.98-0.14l0.01,2.69
		C116.61,91.36,114.61,93.36,112.13,93.37z"/>
	<path class="st5" d="M37.11,93.5l2.69,0L39.7,37.73l-2.69,0.01c-2.47,0-4.48,2.01-4.47,4.49l0.08,46.81
		C32.63,91.5,34.64,93.5,37.11,93.5z"/>
	<path class="st5" d="M112.13,93.37l-2.69,0.01l-0.1-55.76l2.69,0c2.48,0,4.49,2,4.49,4.47l0.08,46.81
		C116.61,91.36,114.61,93.36,112.13,93.37z"/>
	<g>
		<path class="st4" d="M65.84,36.17l-3.44,0.01c-0.25,0-0.45,0.2-0.45,0.45c0,0.25,0.2,0.45,0.45,0.45l3.44-0.01
			c0.25,0,0.45-0.2,0.45-0.45C66.29,36.37,66.09,36.17,65.84,36.17z"/>
		<path class="st4" d="M86.65,36.14l-3.44,0.01c-0.25,0-0.45,0.2-0.45,0.45c0,0.25,0.2,0.45,0.45,0.45l3.44-0.01
			c0.25,0,0.45-0.2,0.45-0.45C87.09,36.33,86.89,36.14,86.65,36.14z"/>
		<path class="st2" d="M66.1,32.05c0.13-0.56,0.75-1.05,1.32-1.05l14.18-0.02c0.57,0,1.2,0.49,1.33,1.05l1.07,4.57l1.84,0
			l-1.17-4.97c-0.32-1.37-1.67-2.44-3.08-2.43l-14.19,0.02c-1.4,0-2.75,1.08-3.06,2.44l-1.16,4.98l1.84,0L66.1,32.05z"/>
		<path class="st5" d="M65.23,31.85c0.22-0.96,1.2-1.75,2.19-1.75l7.09-0.01l7.09-0.01c0.99,0,1.98,0.78,2.2,1.74l1.12,4.77l0.92,0
			l-1.17-4.97c-0.32-1.37-1.67-2.44-3.08-2.43l-14.19,0.02c-1.4,0-2.75,1.08-3.06,2.44l-1.16,4.98l0.92,0L65.23,31.85z"/>
		<path class="st4" d="M67.87,30.1c0,0.32,0.07,0.62,0.18,0.9l12.93-0.02c0.11-0.28,0.18-0.58,0.18-0.9c0-0.32-0.07-0.62-0.18-0.9
			l-12.93,0.02C67.93,29.48,67.87,29.79,67.87,30.1z"/>
		<path class="st2" d="M78.77,28.14l-8.51,0.01c-1.07,0-1.94,0.87-1.94,1.94s0.87,1.94,1.94,1.94l8.51-0.01
			c1.07,0,1.94-0.87,1.94-1.94C80.71,29.01,79.84,28.14,78.77,28.14z"/>
		<path class="st5" d="M78.77,28.14l-8.51,0.01c-1.07,0-1.94,0.87-1.94,1.94l12.39-0.02C80.71,29.01,79.84,28.14,78.77,28.14z"/>
	</g>
	<g>
		<path class="st4" d="M51.52,36.2l-7.77,0.01c-0.25,0-0.45,0.2-0.45,0.45c0,0.25,0.2,0.45,0.45,0.45l7.77-0.01
			c0.25,0,0.45-0.2,0.45-0.45C51.97,36.39,51.77,36.19,51.52,36.2z"/>
		<path class="st4" d="M44.01,36.66l0.34-1.59c0.1-0.48,0.58-0.88,1.08-0.88l4.4-0.01c0.49,0,0.98,0.39,1.08,0.87l0.34,1.59
			L44.01,36.66z"/>
		<polygon class="st4" points="44.26,35.43 44.01,36.66 51.25,36.65 50.98,35.41 		"/>
	</g>
	<g>
		<path class="st4" d="M105.3,36.1l-7.77,0.01c-0.25,0-0.45,0.2-0.45,0.45c0,0.25,0.2,0.45,0.45,0.45l7.77-0.01
			c0.25,0,0.45-0.2,0.45-0.45C105.75,36.3,105.55,36.1,105.3,36.1z"/>
		<path class="st4" d="M97.79,36.57l0.33-1.59c0.1-0.48,0.58-0.88,1.08-0.88l4.41-0.01c0.49,0,0.98,0.39,1.08,0.87l0.34,1.59
			L97.79,36.57z"/>
		<polygon class="st4" points="98.05,35.33 97.79,36.57 105.03,36.55 104.77,35.32 		"/>
	</g>
	<g>
		<path class="st6" d="M43.24,98.56c1.81,0,3.28-1.48,3.28-3.29l-6.57,0.01C39.95,97.1,41.43,98.57,43.24,98.56z"/>
		<path class="st6" d="M106.02,98.45c1.81,0,3.28-1.48,3.28-3.29l-6.57,0.01C102.73,96.99,104.21,98.46,106.02,98.45z"/>
		<path class="st4" d="M40.41,96.93l5.66-0.01c0.28-0.49,0.45-1.04,0.45-1.64l-6.57,0.01C39.95,95.89,40.13,96.44,40.41,96.93z"/>
		<path class="st4" d="M103.19,96.82l5.66-0.01c0.28-0.49,0.45-1.04,0.45-1.64l-6.57,0.01C102.73,95.78,102.91,96.33,103.19,96.82z"
			/>
	</g>
</g>
</svg>
